<svg width="40" height="40" viewBox="0 0 40 40" fill="none" xmlns="http://www.w3.org/2000/svg">
<path d="M5 18.334H10C10.8841 18.334 11.7319 18.6852 12.357 19.3103C12.9821 19.9354 13.3333 20.7833 13.3333 21.6673V26.6673C13.3333 27.5514 12.9821 28.3992 12.357 29.0243C11.7319 29.6495 10.8841 30.0007 10 30.0007H8.33333C7.44928 30.0007 6.60143 29.6495 5.97631 29.0243C5.35119 28.3992 5 27.5514 5 26.6673V18.334ZM5 18.334C5 16.3642 5.38799 14.4136 6.14181 12.5937C6.89563 10.7738 8.00052 9.12026 9.3934 7.72738C10.7863 6.3345 12.4399 5.22961 14.2597 4.47579C16.0796 3.72197 18.0302 3.33398 20 3.33398C21.9698 3.33398 23.9204 3.72197 25.7403 4.47579C27.5601 5.22961 29.2137 6.3345 30.6066 7.72738C31.9995 9.12026 33.1044 10.7738 33.8582 12.5937C34.612 14.4136 35 16.3642 35 18.334M35 18.334V26.6673M35 18.334H30C29.1159 18.334 28.2681 18.6852 27.643 19.3103C27.0179 19.9354 26.6667 20.7833 26.6667 21.6673V26.6673C26.6667 27.5514 27.0179 28.3992 27.643 29.0243C28.2681 29.6495 29.1159 30.0007 30 30.0007H31.6667C32.5507 30.0007 33.3986 29.6495 34.0237 29.0243C34.6488 28.3992 35 27.5514 35 26.6673M35 26.6673V30.0007C35 31.7688 34.2976 33.4645 33.0474 34.7147C31.7971 35.9649 30.1014 36.6673 28.3333 36.6673H20" stroke="#27272A" stroke-width="2" stroke-linecap="round" stroke-linejoin="round"/>
</svg>
