<svg width="40" height="40" viewBox="0 0 40 40" fill="none" xmlns="http://www.w3.org/2000/svg">
<path d="M5 18.333H10C10.8841 18.333 11.7319 18.6842 12.357 19.3093C12.9821 19.9344 13.3333 20.7823 13.3333 21.6663V26.6663C13.3333 27.5504 12.9821 28.3982 12.357 29.0234C11.7319 29.6485 10.8841 29.9997 10 29.9997H8.33333C7.44928 29.9997 6.60143 29.6485 5.97631 29.0234C5.35119 28.3982 5 27.5504 5 26.6663V18.333ZM5 18.333C5 16.3632 5.38799 14.4126 6.14181 12.5928C6.89563 10.7729 8.00052 9.11928 9.3934 7.72641C10.7863 6.33353 12.4399 5.22864 14.2597 4.47481C16.0796 3.72099 18.0302 3.33301 20 3.33301C21.9698 3.33301 23.9204 3.72099 25.7403 4.47481C27.5601 5.22864 29.2137 6.33353 30.6066 7.72641C31.9995 9.11928 33.1044 10.7729 33.8582 12.5928C34.612 14.4126 35 16.3632 35 18.333M35 18.333V26.6663M35 18.333H30C29.1159 18.333 28.2681 18.6842 27.643 19.3093C27.0179 19.9344 26.6667 20.7823 26.6667 21.6663V26.6663C26.6667 27.5504 27.0179 28.3982 27.643 29.0234C28.2681 29.6485 29.1159 29.9997 30 29.9997H31.6667C32.5507 29.9997 33.3986 29.6485 34.0237 29.0234C34.6488 28.3982 35 27.5504 35 26.6663M35 26.6663V29.9997C35 31.7678 34.2976 33.4635 33.0474 34.7137C31.7971 35.964 30.1014 36.6663 28.3333 36.6663H20" stroke="white" stroke-width="2" stroke-linecap="round" stroke-linejoin="round"/>
</svg>
