<svg width="40" height="40" viewBox="0 0 40 40" fill="none" xmlns="http://www.w3.org/2000/svg">
<path d="M23.3335 30.0003V10.0003C23.3335 9.11627 22.9823 8.26842 22.3572 7.6433C21.7321 7.01818 20.8842 6.66699 20.0002 6.66699H6.66683C5.78277 6.66699 4.93493 7.01818 4.30981 7.6433C3.68469 8.26842 3.3335 9.11627 3.3335 10.0003V28.3337C3.3335 28.7757 3.50909 29.1996 3.82165 29.5122C4.13421 29.8247 4.55814 30.0003 5.00016 30.0003H8.3335M8.3335 30.0003C8.3335 31.8413 9.82588 33.3337 11.6668 33.3337C13.5078 33.3337 15.0002 31.8413 15.0002 30.0003M8.3335 30.0003C8.3335 28.1594 9.82588 26.667 11.6668 26.667C13.5078 26.667 15.0002 28.1594 15.0002 30.0003M25.0002 30.0003H15.0002M25.0002 30.0003C25.0002 31.8413 26.4925 33.3337 28.3335 33.3337C30.1744 33.3337 31.6668 31.8413 31.6668 30.0003M25.0002 30.0003C25.0002 28.1594 26.4925 26.667 28.3335 26.667C30.1744 26.667 31.6668 28.1594 31.6668 30.0003M31.6668 30.0003H35.0002C35.4422 30.0003 35.8661 29.8247 36.1787 29.5122C36.4912 29.1996 36.6668 28.7757 36.6668 28.3337V22.2503C36.6662 21.8721 36.5369 21.5053 36.3002 21.2103L30.5002 13.9603C30.3443 13.7651 30.1465 13.6075 29.9215 13.499C29.6965 13.3905 29.45 13.334 29.2002 13.3337H23.3335" stroke="white" stroke-width="1.45833" stroke-linecap="round" stroke-linejoin="round"/>
</svg>
