<svg width="40" height="40" viewBox="0 0 40 40" fill="none" xmlns="http://www.w3.org/2000/svg">
<path d="M23.3335 29.9993V9.99935C23.3335 9.11529 22.9823 8.26745 22.3572 7.64233C21.7321 7.0172 20.8842 6.66602 20.0002 6.66602H6.66683C5.78277 6.66602 4.93493 7.0172 4.30981 7.64233C3.68469 8.26745 3.3335 9.11529 3.3335 9.99935V28.3327C3.3335 28.7747 3.50909 29.1986 3.82165 29.5112C4.13421 29.8238 4.55814 29.9993 5.00016 29.9993H8.3335M8.3335 29.9993C8.3335 31.8403 9.82588 33.3327 11.6668 33.3327C13.5078 33.3327 15.0002 31.8403 15.0002 29.9993M8.3335 29.9993C8.3335 28.1584 9.82588 26.666 11.6668 26.666C13.5078 26.666 15.0002 28.1584 15.0002 29.9993M25.0002 29.9993H15.0002M25.0002 29.9993C25.0002 31.8403 26.4925 33.3327 28.3335 33.3327C30.1744 33.3327 31.6668 31.8403 31.6668 29.9993M25.0002 29.9993C25.0002 28.1584 26.4925 26.666 28.3335 26.666C30.1744 26.666 31.6668 28.1584 31.6668 29.9993M31.6668 29.9993H35.0002C35.4422 29.9993 35.8661 29.8238 36.1787 29.5112C36.4912 29.1986 36.6668 28.7747 36.6668 28.3327V22.2493C36.6662 21.8711 36.5369 21.5044 36.3002 21.2093L30.5002 13.9594C30.3443 13.7641 30.1465 13.6065 29.9215 13.498C29.6965 13.3895 29.45 13.333 29.2002 13.3327H23.3335" stroke="#27272A" stroke-width="1.45833" stroke-linecap="round" stroke-linejoin="round"/>
</svg>
